<svg enable-background="new 0 0 6807.5 1106.7" viewBox="0 0 6807.5 1106.7" xmlns="http://www.w3.org/2000/svg"><g fill="#2462ae"><path d="m3484.5 767.6v-151.3h1051.3v151.3h-229v339h-185.2v-339h-216.6v339h-185.2v-339zm107.6-392.3v-354.7h185.2v322.1h678.4l-93.9 150.1h-658.3c-71.3 0-111.4-41.2-111.4-117.5z"/><path d="m4793.7 458.9h559.5v-458.9h176.5v219.2h159v150.1h-159v253.1h-176.5v-130.8l-65.2 100.5h-573.2c-65.1 0-96.4-31.5-96.4-101.7v-466.2h608.3v133.2h-433v86h390.5v125.9h-390.5zm732.1 647.8h-175.2v-111.4l-71.3 111.4h-449.3c-65.1 0-97.6-31.5-97.6-101.7v-322.1h793.5v423.8zm-618.2-285.8v147.7h443.1v-147.7z"/><path d="m5895.1 449.2c27.5-47.2 35-90.8 35-156.2v-251.8h190.2v256.7c0 35.1-3.8 66.6-10 96.9l310.4 358.4-128.9 106.6-256.6-302.8c-60.1 90.8-162.7 215.5-255.3 317.2l-132.7-115c95.2-101.7 196.5-224 247.9-310zm740.9-78.7h171.5v157.4h-171.5v571.5h-182.7v-1099.4h182.7z"/></g><path d="m0 33.9h338.1c72.8 141.7 146 279.6 219.8 413.7s147 272 219.8 413.7l-4.6-236.6v-590.8h238v1067.7h-339.5c-72.8-133.2-145.5-264-218.3-392.1s-145.5-259-218.3-392.2c1 50.6 1.8 100 2.3 148s.8 97.4.8 148v488.3h-238.1z" fill="#49a6cf"/><path d="m1502.2 1101.6v-881.7h-377.5v-186h1008.1v186h-366.8v881.7z" fill="#49a6cf"/><path d="m2257 915.6h536.7c51.5 0 88.9-9.9 112.2-29.7s34.9-47.4 34.9-82.9v-35.4c0-35.4-13.4-62.8-40.2-82.2s-63.4-29.5-109.9-30.4h-259.2c-109.2 0-188.5-21.9-238-65.8-49.5-43.8-74.3-107.9-74.3-192.3v-104.9c0-84.3 24.8-148.4 74.3-192.3 49.5-43.8 128.9-65.8 238-65.8h620v187.2h-521.5c-51.5 0-88.9 9.9-112.2 29.7s-34.9 47.4-34.9 82.9v21.5c0 38 11.6 66.2 34.9 84.8 23.2 18.6 60.6 27.8 112.2 27.8h262.3c108.1 0 187.2 23.2 237.2 69.6s75 111.3 75 194.8v111.3c0 84.3-24.8 148.4-74.3 192.3-49.5 43.8-128.9 65.8-238 65.8h-635.2z" fill="#49a6cf"/></svg>